<svg id="Laag_1" data-name="Laag 1" xmlns="http://www.w3.org/2000/svg" viewBox="0 0 320.33 322.65"><title>categories</title><path d="M158.4,148.2c-4.59-1.37-8.77-2.07-12.48-3.79Q76.68,112.34,7.6,79.89C4.68,78.52,2.52,75.52,0,73.27c2.43-2,4.59-4.47,7.34-5.76C52.85,46.1,98.46,24.91,144,3.49c9.31-4.38,18.17-4.79,27.6-.36C217.37,24.65,263.27,46,309.05,67.5c2.94,1.38,5.17,4.25,7.72,6.43-2.48,2-4.69,4.54-7.48,5.85Q240.59,112,171.74,143.89C167.49,145.85,162.79,146.81,158.4,148.2Z"/><path d="M39.55,228.19c6.77,2.41,12.23,3.89,17.3,6.22q44.45,20.49,88.71,41.35c8.77,4.13,17.18,4,25.89-.12,30.33-14.28,60.77-28.34,91.09-42.62,8.72-4.1,17.19-4.47,25.91-.17,6.71,3.31,13.68,6.1,20.31,9.57,3,1.56,5.4,4.2,8.07,6.34-2.61,2.21-4.9,5.06-7.88,6.5-17.49,8.49-35.14,16.7-52.76,24.93-27.93,13-55.95,25.9-83.81,39.09-9.68,4.58-19,4.41-28.5-.06Q76,287.39,8.08,255.55c-3-1.41-5.4-4.14-8.07-6.26,2.73-2.4,5.1-5.54,8.25-7.07C18.65,237.18,29.33,232.72,39.55,228.19Z"/><path d="M318.86,161.38c-4.05,2.61-6.5,4.61-9.28,5.92-45.29,21.28-90.67,42.34-135.89,63.77-10.58,5-20.32,5-30.93,0C98.09,209.86,53.21,189.13,8.49,168c-3.2-1.51-5.68-4.59-8.49-6.93,2.67-2.16,5-5,8.06-6.38,36.21-16.95,28.92-17,64.94-.41q35.91,16.58,71.63,33.54c9.39,4.49,18.21,4.28,27.56-.17,30.05-14.27,60.26-28.19,90.37-42.33,8.69-4.08,17.23-4.39,25.95-.12,7,3.43,14.16,6.52,21.12,10C312.4,156.63,314.84,158.67,318.86,161.38Z"/></svg>