<svg id="Laag_1" data-name="Laag 1" xmlns="http://www.w3.org/2000/svg" viewBox="0 0 320.33 501.62"><defs><style>.cls-1{fill:#1d1d1b;}</style></defs><title>favorites</title><path class="cls-1" d="M320.13,33.69a44.9,44.9,0,0,0-1.52-11.29C315.55,10.78,307.06,4.3,296.47,0H23.91C5.88,6.94,0,20.53,0,39.2Q.48,252,.16,464.85c0,8.14-.4,16.34.42,24.41C1.67,500,9.3,504.43,19.09,499.79a56.33,56.33,0,0,0,15.19-11Q95.21,428.35,155.75,367.5a68.55,68.55,0,0,0,4.5-5.74,78.66,78.66,0,0,0,5.1,6.41q60.29,60.39,120.7,120.66a56.17,56.17,0,0,0,10,8.12c10.94,6.68,24.27,5.84,24.25-13.66Q320,258.49,320.13,33.69ZM210.59,292.27c-16.61-11.62-33.32-23.08-50.37-34.84-16.83,11.6-33.42,22.95-49.89,34.48-3.15,2.21-6.06,3.66-9.48,1.15s-3.12-5.91-1.91-9.8q8.44-27.3,16.28-54.79c.41-1.44-.75-4.12-2-5.13q-22.36-17.53-45-34.68c-3-2.29-5.32-4.85-3.92-8.78s4.57-4.42,8.47-4.49c19.12-.34,38.23-1.13,57.35-1.52,3.27-.06,3.75-2,4.51-4.19,6.12-17.35,12.14-34.73,18.43-52,.9-2.46,2.67-5.25,4.83-6.45,4.08-2.26,7.65.34,9.75,6.29,6,17,12.16,34,17.89,51.16,1.35,4,3.19,5.22,7.32,5.28,18.79.27,37.57.77,56.34,1.62a9.85,9.85,0,0,1,6.9,4.33c1.83,3.23-.22,6.2-3.19,8.46-15.08,11.46-30,23.09-45.2,34.46-2.77,2.07-3.18,3.82-2.19,7,5.56,18.05,10.76,36.22,16.31,54.27,1.13,3.64,1,6.58-2.06,8.89S213.66,294.42,210.59,292.27Z"/></svg>