<svg id="Laag_1" data-name="Laag 1" xmlns="http://www.w3.org/2000/svg" viewBox="0 0 527.52 483.29"><defs><style>.cls-1{opacity:0;}</style></defs><title>hearth</title><path d="M513.59,104.67c-18.62-54.24-56-88-113-96.37-56-8.18-100.85,13.05-134.48,58.23-.66.88-1.36,1.74-2.16,2.77-4.72-5.79-8.94-11.53-13.72-16.75-25.66-28-57.48-43.49-95.46-45.82C84.92,2.47,23.51,51.17,10.11,119.08c-.9,4.53-1.57,9.12-2.35,13.68v26a13.55,13.55,0,0,1,.94,2.75C12,191.18,24.29,216.9,44,239.05c23.13,25.95,46.66,51.55,70,77.32q70.2,77.47,140.41,155c6.71,7.4,12.74,7.27,19.32,0Q377.94,355.89,482.13,240.52c15.05-16.66,26.33-35.47,32.34-57.16,2.24-8.08,3.55-16.43,5.29-24.65v-26C517.75,123.38,516.68,113.68,513.59,104.67ZM464.62,228q-99.3,109.68-198.39,219.54c-.56.62-1,1.32-2,2.57-10.75-11.83-20.93-23-31.07-34.18Q149.26,323.26,65.3,230.65c-16.62-18.29-29-38.55-33.86-63.19-10.63-53.91,19.38-110,70.32-130.55,58-23.43,122.31.69,150.52,56.48,4.06,8,8.72,10.93,15.07,8.21a15.65,15.65,0,0,0,7.11-6.94c13.82-27.46,34.85-47,63.33-58.6C404.39,8.94,482.6,51.4,495.85,121.9,503.49,162.53,492.13,197.55,464.62,228Z"/><path class="cls-1" d="M464.62,228q-99.3,109.68-198.39,219.54c-.56.62-1,1.32-2,2.57-10.75-11.83-20.93-23-31.07-34.18Q149.26,323.26,65.3,230.65c-16.62-18.29-29-38.55-33.86-63.19-10.63-53.91,19.38-110,70.32-130.55,58-23.43,122.31.69,150.52,56.48,4.06,8,8.72,10.93,15.07,8.21a15.65,15.65,0,0,0,7.11-6.94c13.82-27.46,34.85-47,63.33-58.6C404.39,8.94,482.6,51.4,495.85,121.9,503.49,162.53,492.13,197.55,464.62,228Z"/></svg>