<svg id="Laag_1" data-name="Laag 1" xmlns="http://www.w3.org/2000/svg" viewBox="0 0 320.33 440.32"><title>list</title><path d="M295.62,440.32H24.09c-.92-.34-1.82-.72-2.76-1A27.47,27.47,0,0,1,1.77,413q0-165.12,0-330.24c0-13.4,9.74-25.77,23-26.85,13.61-1.1,27.37-.24,41.46-.24,0,1.93-.09,3.62,0,5.3.34,5.26,0,10.71,1.28,15.74,3.11,12.28,14.14,20,27.72,20q65.07.06,130.14,0c16,0,28.09-12.31,28.15-28.41,0-4.23,0-8.45,0-12.81,12.85,0,25,0,37.18,0,12.52,0,23.54,8.33,26.28,20.52,1.1,4.93.94,10.21.94,15.33q.09,160.39.1,320.8a28.43,28.43,0,0,1-5.49,17.23C308.3,435.16,302.25,438.18,295.62,440.32ZM197.79,151.66h15c14,0,28.06,0,42.1,0,3.89,0,6.75-1.58,7.74-5.41.86-3.32-.63-6-3.66-7.4a13.38,13.38,0,0,0-5.4-.9q-43.4-.08-86.77,0c-8.88,0-17.76-.06-26.63,0-4.62,0-7.81,3-7.8,6.85s3.27,6.68,7.83,6.87c.57,0,1.14,0,1.72,0Zm.31,41.23v0H141.83c-6.06,0-9.54,2.58-9.43,6.94s3.52,6.78,9.64,6.79h24.05c29.35,0,58.71.07,88.06-.12a10.64,10.64,0,0,0,7.07-2.88c1.26-1.35,1.42-4.57.82-6.59-1-3.2-4-4.18-7.24-4.17Q226.45,192.93,198.1,192.89Zm-.84,68.74q28.35,0,56.7,0c5.62,0,9.07-2.74,9-7s-3.43-6.72-8.81-6.74c-10.6,0-21.19,0-31.79,0H142c-.58,0-1.15,0-1.72,0-4.72.2-7.83,2.88-7.89,6.78s3.22,6.92,8.15,6.93Q168.92,261.65,197.26,261.63ZM77.13,149.37c-3.08-3.33-5.49-6.16-8.14-8.75-3.54-3.45-7.23-3.53-10.17-.49s-2.77,6.49.48,9.86q6.38,6.64,13,13c3.31,3.17,6.64,3.34,9.87.18,9.19-9,18.25-18.1,27.28-27.24,2.46-2.49,3-5.46,1-8.57-2.56-3.93-7.2-4.26-11-.52C92.19,134.06,85,141.4,77.13,149.37Zm-.37,55.28c-1.46-2-2.45-3.57-3.66-5a53,53,0,0,0-4.25-4.23c-3.45-3.18-7-3.35-9.89-.54s-3,6.64.47,10.18q6.1,6.32,12.4,12.43c4,3.84,7.08,3.8,11.11-.08,2.89-2.77,5.67-5.64,8.5-8.47,6-6,12-11.83,17.84-17.91,4.09-4.27,2.41-10.81-3.1-11.47-2.25-.27-5.31,1.13-7.06,2.78C91.85,189.22,84.93,196.44,76.76,204.65Zm.18,54.77c-3.08-3.4-5.6-6.51-8.47-9.26-3.18-3-6.73-3-9.54-.24s-3,6.39,0,9.54c4.4,4.69,9,9.22,13.6,13.68,2.86,2.76,6.34,3.18,9.22.38,9.53-9.26,19-18.59,28.16-28.2,3.67-3.85,1.39-10.29-3.77-10.8-2.26-.22-5.26,1.25-7,2.91C91.8,244.27,84.87,251.47,76.94,259.42Z"/><path d="M159.86,82.92q-32.62,0-65.25,0c-9.16,0-14.62-5.52-14.68-14.67,0-6.15,0-12.3,0-18.46,0-9.43,5.48-14.87,14.83-15,4.7-.07,9.49.09,14.07-.74,7.54-1.36,13.88-5.43,17-12.49C133,5.19,144.91-.87,162.68.1c13.32.73,22.86,5,28.56,17.07,4.35,9.21,10.91,15.77,21.29,17.32,4.35.65,8.85.27,13.29.33,8.24.11,13.89,5.78,13.94,14.1,0,6.72.05,13.45,0,20.17-.07,8-5.79,13.8-13.79,13.81Q192.92,83,159.86,82.92Zm.12-61.8A10.52,10.52,0,0,0,149.6,31.47a10.59,10.59,0,0,0,10.14,10.19c5.24.12,10.2-4.62,10.4-9.94A10.59,10.59,0,0,0,160,21.12Z"/></svg>